<mxfile host="app.diagrams.net" modified="2024-07-09T12:16:53.090Z" agent="Mozilla/5.0 (Windows NT 10.0; Win64; x64) AppleWebKit/537.36 (KHTML, like Gecko) Chrome/126.0.0.0 Safari/537.36" version="24.5.4" etag="qJBK-KholMVU2TSyOa3l" type="github">
  <diagram name="Page-1" id="rxCnxZm8k2ig-5ok-rhX">
    <mxGraphModel>
      <root>
        <mxCell id="0" />
        <mxCell id="1" parent="0" />
      </root>
    </mxGraphModel>
  </diagram>
</mxfile>
